<svg width="16" height="16" viewBox="0 0 16 16" fill="none" xmlns="http://www.w3.org/2000/svg">
<path d="M5.70785 7.17172C5.74581 7.17174 5.78293 7.16051 5.81452 7.13945C5.84611 7.11839 5.87075 7.08845 5.88534 7.0534C5.96447 6.70467 6.1505 6.38934 6.41747 6.15142C6.46186 6.12185 6.47665 6.06271 6.47665 6.00354C6.47477 5.97932 6.46706 5.95592 6.45418 5.93532C6.4413 5.91473 6.42364 5.89755 6.40269 5.88525L2.23289 3.44538L4.89458 1.89281C4.94685 1.86266 4.99057 1.81968 5.02162 1.76793C5.05266 1.71619 5.07 1.65738 5.072 1.59707C5.07313 1.5361 5.05709 1.47604 5.02571 1.42375C4.99434 1.37146 4.9489 1.32903 4.89458 1.30133L4.0961 0.842837C4.04414 0.813753 3.98559 0.79848 3.92605 0.79848C3.86651 0.79848 3.80796 0.813753 3.756 0.842837L0.177514 2.913C0.125242 2.94316 0.0815171 2.98614 0.0504673 3.03788C0.0194174 3.08963 0.0020671 3.14843 5.42958e-05 3.20874V7.31961C-0.00105968 7.38058 0.0149877 7.44064 0.0463655 7.49294C0.0777432 7.54523 0.123188 7.58765 0.177514 7.61535L0.975995 8.07374C1.02946 8.10572 1.09119 8.12116 1.15342 8.11809C1.24083 8.12046 1.32572 8.08864 1.39002 8.02938C1.45391 7.96093 1.49072 7.87158 1.49359 7.77799V4.73203L5.63392 7.15697C5.65704 7.16768 5.68238 7.17274 5.70785 7.17172ZM11.1199 12.3472C11.0583 12.3496 10.9979 12.3647 10.9425 12.3916L8.28082 13.9295V9.13842C8.28082 9.03485 8.17725 8.93129 8.059 8.97575C7.72203 9.0767 7.36361 9.08182 7.02389 8.99053C6.99836 8.98315 6.97148 8.98172 6.94531 8.98636C6.91915 8.991 6.8944 9.00159 6.87297 9.0173C6.85154 9.03302 6.83401 9.05345 6.82172 9.07701C6.80944 9.10057 6.80273 9.12664 6.80211 9.15321V13.9146L4.14042 12.3768C4.08695 12.3448 4.0252 12.3293 3.96296 12.3324C3.87307 12.3334 3.78715 12.3696 3.72358 12.4331C3.66002 12.4967 3.62386 12.5826 3.62286 12.6725V13.6041C3.62174 13.6651 3.63778 13.7251 3.66916 13.7774C3.70054 13.8297 3.74599 13.8721 3.80032 13.8998L7.37881 15.9553C7.43227 15.9872 7.49401 16.0027 7.55623 15.9996C7.61805 15.999 7.67884 15.9838 7.73369 15.9553L11.3122 13.8998C11.3644 13.8697 11.4082 13.8267 11.4392 13.775C11.4703 13.7232 11.4876 13.6644 11.4896 13.6041V12.6725C11.4602 12.5099 11.2974 12.3472 11.1199 12.3472ZM9.78907 1.64282C9.95153 1.64282 10.1103 1.59464 10.2454 1.50439C10.3805 1.41413 10.4858 1.28584 10.548 1.13575C10.6101 0.985656 10.6264 0.820498 10.5947 0.66116C10.563 0.501823 10.4848 0.355462 10.3699 0.240585C10.255 0.125709 10.1087 0.0474778 9.94932 0.0157835C9.78998 -0.0159107 9.62482 0.000355853 9.47473 0.0625263C9.32464 0.124697 9.19635 0.229979 9.10609 0.365059C9.01584 0.500139 8.96766 0.65895 8.96766 0.821409C8.96766 1.03926 9.0542 1.24819 9.20825 1.40223C9.36229 1.55628 9.57122 1.64282 9.78907 1.64282ZM12.0614 1.28261C11.8989 1.28261 11.7401 1.33079 11.6051 1.42104C11.47 1.5113 11.3647 1.63959 11.3025 1.78968C11.2404 1.93977 11.2241 2.10493 11.2558 2.26427C11.2875 2.42361 11.3657 2.56997 11.4806 2.68485C11.5955 2.79972 11.7418 2.87795 11.9012 2.90965C12.0605 2.94134 12.2257 2.92507 12.3757 2.8629C12.5258 2.80073 12.6541 2.69545 12.7444 2.56037C12.8346 2.42529 12.8828 2.26648 12.8828 2.10402C12.8828 1.88617 12.7963 1.67724 12.6422 1.5232C12.4882 1.36915 12.2793 1.28261 12.0614 1.28261ZM14.3179 4.27133C14.4803 4.27133 14.6391 4.22315 14.7742 4.13289C14.9093 4.04264 15.0146 3.91435 15.0767 3.76426C15.1389 3.61416 15.1552 3.44901 15.1235 3.28967C15.0918 3.13033 15.0136 2.98397 14.8987 2.86909C14.7838 2.75422 14.6374 2.67599 14.4781 2.64429C14.3188 2.6126 14.1536 2.62886 14.0035 2.69103C13.8534 2.75321 13.7251 2.85849 13.6349 2.99357C13.5446 3.12865 13.4964 3.28746 13.4964 3.44992C13.4964 3.66777 13.583 3.8767 13.737 4.03074C13.8911 4.18479 14.1 4.27133 14.3179 4.27133ZM12.0614 3.94276C11.8989 3.94276 11.7401 3.99094 11.6051 4.0812C11.47 4.17145 11.3647 4.29974 11.3025 4.44983C11.2404 4.59993 11.2241 4.76508 11.2558 4.92442C11.2875 5.08376 11.3657 5.23012 11.4806 5.345C11.5955 5.45987 11.7418 5.5381 11.9012 5.5698C12.0605 5.60149 12.2257 5.58523 12.3757 5.52306C12.5258 5.46088 12.6541 5.3556 12.7444 5.22052C12.8346 5.08544 12.8828 4.92663 12.8828 4.76417C12.8828 4.54632 12.7963 4.33739 12.6422 4.18335C12.4882 4.0293 12.2793 3.94276 12.0614 3.94276ZM9.78907 6.91569C9.95153 6.91569 10.1103 6.86752 10.2454 6.77726C10.3805 6.687 10.4858 6.55872 10.548 6.40862C10.6101 6.25853 10.6264 6.09337 10.5947 5.93403C10.563 5.7747 10.4848 5.62834 10.3699 5.51346C10.255 5.39858 10.1087 5.32035 9.94932 5.28866C9.78998 5.25696 9.62482 5.27323 9.47473 5.3354C9.32464 5.39757 9.19635 5.50285 9.10609 5.63793C9.01584 5.77301 8.96766 5.93182 8.96766 6.09428C8.96764 6.20216 8.98888 6.30899 9.03015 6.40867C9.07142 6.50834 9.13192 6.59891 9.2082 6.6752C9.28447 6.75149 9.37503 6.81201 9.4747 6.8533C9.57436 6.89458 9.68119 6.91583 9.78907 6.91583V6.91569ZM7.5722 8.21416C7.73465 8.21416 7.89347 8.16599 8.02855 8.07573C8.16363 7.98547 8.26891 7.85718 8.33108 7.70709C8.39325 7.557 8.40952 7.39184 8.37782 7.2325C8.34613 7.07317 8.2679 6.9268 8.15302 6.81193C8.03814 6.69705 7.89178 6.61882 7.73244 6.58713C7.57311 6.55543 7.40795 6.5717 7.25786 6.63387C7.10776 6.69604 6.97948 6.80132 6.88922 6.9364C6.79896 7.07148 6.75079 7.23029 6.75079 7.39275C6.75077 7.50063 6.772 7.60746 6.81327 7.70714C6.85454 7.80681 6.91504 7.89738 6.99132 7.97367C7.0676 8.04996 7.15816 8.11048 7.25782 8.15176C7.35749 8.19305 7.46431 8.2143 7.5722 8.2143V8.21416ZM14.3179 5.27287C14.1554 5.27287 13.9966 5.32105 13.8615 5.41131C13.7264 5.50156 13.6211 5.62985 13.559 5.77994C13.4968 5.93004 13.4805 6.09519 13.5122 6.25453C13.5439 6.41387 13.6222 6.56023 13.737 6.67511C13.8519 6.78998 13.9983 6.86821 14.1576 6.89991C14.3169 6.9316 14.4821 6.91534 14.6322 6.85317C14.7823 6.791 14.9106 6.68571 15.0008 6.55063C15.0911 6.41555 15.1393 6.25674 15.1393 6.09428C15.1392 5.87646 15.0527 5.66756 14.8986 5.51355C14.7446 5.35954 14.5357 5.27302 14.3179 5.27302V5.27287ZM14.3179 7.85396C14.1554 7.85396 13.9966 7.90213 13.8615 7.99239C13.7264 8.08265 13.6211 8.21093 13.559 8.36102C13.4968 8.51112 13.4805 8.67628 13.5122 8.83561C13.5439 8.99495 13.6222 9.14131 13.737 9.25619C13.8519 9.37106 13.9983 9.4493 14.1576 9.48099C14.3169 9.51268 14.4821 9.49642 14.6322 9.43425C14.7823 9.37208 14.9106 9.2668 15.0008 9.13171C15.0911 8.99663 15.1393 8.83782 15.1393 8.67536C15.1392 8.45754 15.0527 8.24865 14.8986 8.09463C14.7446 7.94062 14.5357 7.8541 14.3179 7.8541V7.85396Z" fill="#4A4A4A"/>
</svg>
