
<svg width="16" height="19" viewBox="0 0 16 19" fill="none" xmlns="http://www.w3.org/2000/svg">
<path d="M8 9.64054C10.525 9.64054 12.5714 7.59411 12.5714 5.06911C12.5714 2.54411 10.525 0.497681 8 0.497681C5.475 0.497681 3.42857 2.54411 3.42857 5.06911C3.42857 7.59411 5.475 9.64054 8 9.64054ZM11.2 10.7834H10.6036C9.81071 11.1477 8.92857 11.3548 8 11.3548C7.07143 11.3548 6.19286 11.1477 5.39643 10.7834H4.8C2.15 10.7834 0 12.9334 0 15.5834V17.0691C0 18.0155 0.767857 18.7834 1.71429 18.7834H14.2857C15.2321 18.7834 16 18.0155 16 17.0691V15.5834C16 12.9334 13.85 10.7834 11.2 10.7834Z" fill="black"/>
</svg>
